<svg width="11" height="11" viewBox="0 0 11 11" fill="none" xmlns="http://www.w3.org/2000/svg">
<path d="M4.8125 10.3125V6.1875H0.687494C0.307798 6.1875 0 5.87969 0 5.49999C3.572e-06 5.1203 0.3078 4.8125 0.687494 4.8125H4.8125V0.687494C4.8125 0.3078 5.1203 3.57178e-06 5.49999 0C5.87969 0 6.1875 0.307798 6.1875 0.687494V4.8125H10.3125C10.6922 4.8125 11 5.1203 11 5.49999C11 5.87968 10.6922 6.1875 10.3125 6.1875H6.1875V10.3125C6.1875 10.6922 5.87968 11 5.49999 11C5.1203 11 4.8125 10.6922 4.8125 10.3125Z" fill="white"/>
</svg>
