<svg width="11" height="12" viewBox="0 0 11 12" fill="none" xmlns="http://www.w3.org/2000/svg">
<path d="M1.22221 9.6V4.79999C1.22221 4.46862 1.49583 4.2 1.83333 4.2C2.17084 4.2 2.44444 4.46863 2.44444 4.79999V9.6C2.44444 10.2628 2.99165 10.8 3.66667 10.8H7.33333C8.00837 10.8 8.55554 10.2628 8.55554 9.6V4.79999C8.55555 4.46862 8.82916 4.2 9.16667 4.2C9.50417 4.2 9.77777 4.46863 9.77777 4.79999V9.6C9.77777 10.9255 8.68339 12 7.33333 12H3.66667C2.31665 12 1.22221 10.9255 1.22221 9.6ZM3.66667 9.00001V6C3.66667 5.66863 3.94026 5.40001 4.27777 5.40001C4.61528 5.40001 4.88888 5.66863 4.88888 6V9.00001C4.88887 9.33138 4.61528 9.6 4.27777 9.6C3.94027 9.6 3.66667 9.33138 3.66667 9.00001ZM6.1111 9.00001V6C6.1111 5.66863 6.38471 5.40001 6.72221 5.40001C7.05972 5.40001 7.33333 5.66863 7.33333 6V9.00001C7.33333 9.33138 7.05972 9.6 6.72221 9.6C6.38471 9.6 6.11111 9.33138 6.1111 9.00001ZM6.72221 1.8C6.72221 1.46862 6.44862 1.19999 6.1111 1.19999H4.88888C4.55137 1.19999 4.27777 1.46863 4.27777 1.8V2.4H6.72221V1.8ZM7.94444 2.4H10.3889C10.7264 2.4 11 2.66862 11 2.99999C11 3.33136 10.7264 3.6 10.3889 3.6H0.611105C0.273598 3.6 0 3.33136 0 2.99999C3.17511e-06 2.66862 0.2736 2.4 0.611105 2.4H3.05554V1.8C3.05554 0.80589 3.87636 2.96878e-06 4.88888 0H6.1111C7.12365 0 7.94444 0.805894 7.94444 1.8V2.4Z" fill="#DE2828"/>
</svg>
