<svg width="11" height="11" viewBox="0 0 11 11" fill="none" xmlns="http://www.w3.org/2000/svg">
<path fill-rule="evenodd" clip-rule="evenodd" d="M9.97012 0.441387C9.38159 -0.147128 8.42741 -0.14713 7.83888 0.441387L0.727095 7.55319C0.516718 7.76356 0.373318 8.0315 0.314972 8.32321L0.0200684 9.79775C-0.120528 10.5007 0.499267 11.1205 1.20225 10.9799L2.67676 10.685C2.9685 10.6267 3.23645 10.4833 3.44682 10.2729L10.5586 3.16111C11.1471 2.57259 11.1471 1.61842 10.5586 1.0299L9.97012 0.441387ZM8.54928 1.15179C8.74549 0.955618 9.06351 0.955618 9.25972 1.15179L9.8482 1.74031C10.0444 1.93648 10.0444 2.25453 9.8482 2.45071L8.50618 3.79273L7.2073 2.49381L8.54928 1.15179ZM6.49685 3.20421L1.4375 8.26358C1.36737 8.33371 1.31957 8.42302 1.30012 8.52027L1.00522 9.99476L2.47973 9.69984C2.57698 9.6804 2.66629 9.63263 2.73642 9.56251L7.79578 4.50313L6.49685 3.20421Z" fill="#0F0F0F"/>
</svg>
