<svg width="11" height="11" viewBox="0 0 11 11" fill="none" xmlns="http://www.w3.org/2000/svg">
<path fill-rule="evenodd" clip-rule="evenodd" d="M9.48736 4.89042L0.633814 4.88716C0.284182 4.88716 0 5.16103 0 5.49806C0 5.83551 0.283759 6.10978 0.632969 6.10978L9.55323 6.11345C9.50805 6.17825 9.45442 6.23815 9.39404 6.29236C7.79494 7.71956 5.30655 9.94024 5.30655 9.94024C5.04982 10.1693 5.0342 10.556 5.27151 10.8038C5.50882 11.0516 5.90997 11.0667 6.1667 10.8376C6.1667 10.8376 8.65466 8.61736 10.2542 7.19016C10.7237 6.77081 10.9936 6.18354 10.9999 5.56612C11.0058 4.9487 10.7482 4.35655 10.2871 3.92863L6.23722 0.170719C5.98555 -0.0632077 5.58398 -0.0558721 5.3416 0.187428C5.09965 0.430729 5.10725 0.817891 5.35934 1.05182L9.40924 4.80973C9.43669 4.83541 9.46287 4.8623 9.48736 4.89042Z" fill="white"/>
</svg>
